<?xml version="1.0" encoding="utf-8"?>
<!-- Generator: Adobe Illustrator 24.0.3, SVG Export Plug-In . SVG Version: 6.00 Build 0)  -->
<svg version="1.1" id="Layer_1" xmlns="http://www.w3.org/2000/svg" xmlns:xlink="http://www.w3.org/1999/xlink" x="0px" y="0px"
	 viewBox="0 0 19.3 19.3" style="enable-background:new 0 0 19.3 19.3;" xml:space="preserve">
<style type="text/css">
	.st0{fill:#B5B5B5;}
</style>
<path class="st0" d="M16,0.5H3.3c-1.5,0-2.8,1.3-2.8,2.8V16c0,1.5,1.3,2.8,2.8,2.8H16c1.5,0,2.8-1.3,2.8-2.8V3.3
	C18.8,1.8,17.5,0.5,16,0.5z M16.8,16c0,0.4-0.4,0.8-0.8,0.8H3.3c-0.4,0-0.8-0.4-0.8-0.8V3.3c0-0.4,0.4-0.8,0.8-0.8H16
	c0.4,0,0.8,0.4,0.8,0.8V16z"/>
</svg>
