<?xml version="1.0" encoding="UTF-8"?>
<svg xmlns="http://www.w3.org/2000/svg" width="168.95282859481537" height="33.600000945228615" viewBox="69.44921875000014 17.271606445312706 168.95282859481537 33.600000945228615" preserveAspectRatio="none">
  <g>
    <defs>
      <path id="s-Path_1-d1224" d="M85.34653256551752 30.059666146863513 L85.34653256551752 50.87160644546582 C92.51787594478442 50.87160644546582 98.38533853572625 45.25489012318188 98.48563742579783 38.28414356753707 L98.48563742579783 38.28414356753707 L98.48563742579783 17.271606445312706 C91.2139956347199 17.271606445312706 85.34653256551752 22.98862117940767 85.34653256551752 30.059666146863513 Z "></path>
      <linearGradient id="s-Path_1-d1224-gradient" x1="-53.43230053402522" y1="22.608891387508496" x2="-53.25732604125389" y2="22.88962650586332" gradientUnits="userSpaceOnUse">
        <stop stop-color="#C13ED1" offset="0.0%" stop-opacity="1.0"></stop>
        <stop stop-color="#9835FF" offset="100.0%" stop-opacity="1.0"></stop>
      </linearGradient>
    </defs>
    <g style="mix-blend-mode:normal">
      <use xmlns:xlink="http://www.w3.org/1999/xlink" xlink:href="#s-Path_1-d1224" fill="url(#s-Path_1-d1224-gradient)" fill-opacity="1.0"></use>
    </g>
  </g>
  <g>
    <defs>
      <path id="s-Path_2-d1224" d="M85.34653256551752 30.059666146863513 L85.34653256551752 50.87160644546582 C92.51787594478442 50.87160644546582 98.38533853572625 45.25489012318188 98.48563742579783 38.28414356753707 L98.48563742579783 38.28414356753707 L98.48563742579783 17.271606445312706 C91.2139956347199 17.271606445312706 85.34653256551752 22.98862117940767 85.34653256551752 30.059666146863513 Z "></path>
      <linearGradient id="s-Path_2-d1224-gradient" x1="-53.43230053402522" y1="22.608891387508496" x2="-53.25732604125389" y2="22.88962650586332" gradientUnits="userSpaceOnUse">
        <stop stop-color="#C13ED1" offset="0.0%" stop-opacity="1.0"></stop>
        <stop stop-color="#9835FF" offset="100.0%" stop-opacity="1.0"></stop>
      </linearGradient>
    </defs>
    <g style="mix-blend-mode:normal">
      <use xmlns:xlink="http://www.w3.org/1999/xlink" xlink:href="#s-Path_2-d1224" fill="url(#s-Path_2-d1224-gradient)" fill-opacity="1.0"></use>
    </g>
  </g>
  <g>
    <defs>
      <path id="s-Path_3-d1224" d="M233.98892330415532 43.148620605586224 C233.73817703549742 43.65011314290194 233.43728150115152 44.05130714884149 233.03608749521203 44.30205341749935 C232.63489348927243 44.55279968615721 232.13340095195673 44.70324745333018 231.53160988326482 44.70324745333018 C230.97996808026107 44.70324745333018 230.47847560272777 44.55279968615721 230.07728147722315 44.30205341749935 C229.67608735171854 44.05130714884149 229.3250426712496 43.65011314290194 229.1244456682798 43.148620605586224 C228.87369939962196 42.647128068270504 228.7734008981372 42.04533699957862 228.7734008981372 41.34324751907568 C228.7734008981372 40.64115797879018 228.87369940709482 40.03936696988086 229.1244456682798 39.53787443256514 C229.3751919294649 39.036381895249434 229.67608747128367 38.63518788930988 230.07728147722315 38.38444162065203 C230.47847548316275 38.13369535199416 230.9799680204785 37.98324758482119 231.53160988326482 37.98324758482119 C232.13340095195673 37.98324758482119 232.63489348927243 38.13369535199416 233.03608749521203 38.38444162065203 C233.43728150115152 38.63518788930988 233.78832630118535 39.036381895249434 233.98892330415532 39.53787443256514 C234.2396695728131 40.03936696988086 234.33996807429804 40.64115803857276 234.33996807429804 41.34324751907568 C234.33995889767368 42.0453385539254 234.2396695728131 42.647128068270504 233.98892330415532 43.148620605586224 L233.98892330415532 43.148620605586224 Z M234.2396695728131 29.558173609547133 L234.2396695728131 35.82683032599361 C234.0892218056402 35.726531817035905 233.93877403846722 35.57608405733575 233.78832630118535 35.47578555585088 C233.33698302955793 35.17489002150492 232.83549049224212 34.92414375284707 232.28384868923837 34.723546749877286 C231.73220688623456 34.522949746907514 231.13041587732528 34.422651215531346 230.52862480863348 34.422651215531346 C229.37519199672022 34.422651215531346 228.3220575966182 34.723546749877286 227.41937117292804 35.32533775878662 C226.5166846296728 35.9271288274785 225.81459502960485 36.77966616482825 225.26295316681848 37.78265123945968 C224.76146062950278 38.83578551999664 224.51071436084482 40.03936765738041 224.51071436084482 41.343248206575225 C224.51071436084482 42.647128755770034 224.76146062950278 43.85071089315382 225.26295316681848 44.903845173690776 C225.76444570413412 45.95697945422773 226.5166845101076 46.75936758567195 227.41937117292804 47.361158654363855 C228.32205783574852 47.962949723055736 229.37519211628546 48.26384519761911 230.47847560272777 48.26384519761911 C231.08026667141985 48.26384519761911 231.68205774011165 48.16354668866142 232.23369948333288 48.013098928961256 C232.78534122655412 47.862651169261106 233.28683376386977 47.61190489313042 233.73817709528004 47.31100938867576 C233.9889233639379 47.16056162150279 234.18952036690763 46.95996461853302 234.39011736987737 46.809516851360044 L234.49041587883505 48.013098988743835 L238.4020577655499 48.013098988743835 L238.4020577655499 29.558173609547133 L234.2396695728131 29.558173609547133 Z "></path>
    </defs>
    <g style="mix-blend-mode:normal">
      <use xmlns:xlink="http://www.w3.org/1999/xlink" xlink:href="#s-Path_3-d1224" fill="#000000" fill-opacity="1.0"></use>
    </g>
  </g>
  <g>
    <defs>
      <path id="s-Path_4-d1224" d="M210.4689263649134 47.86265122157112 C210.819971135056 48.16354675591706 211.42176217385656 48.313994493198756 212.22415024551827 48.313994493198756 C212.6253442813491 48.313994493198756 212.97638905149188 48.263845238719895 213.32743385152588 48.213695984241035 C213.6784786216686 48.163546729762174 213.92922492021785 48.113397475283335 214.07967265749937 48.06324821706807 L214.12982191197835 40.13966603182758 C214.12982191197835 39.838770497481626 214.1799711664571 39.537874963135685 214.28026967915127 39.287128694477815 C214.380568188109 39.03638242581996 214.53101594780918 38.785636157162116 214.73161295077892 38.58503915419234 C214.93220995374872 38.38444215122256 215.13280698660975 38.23399438404958 215.43370249106437 38.133695882564695 C215.68444875972233 38.03339737360699 215.98534429406817 37.98324811539171 216.33638903431967 37.98324811539171 C216.98832930891712 37.98324811539171 217.48982184623287 38.18384513330714 217.84086664626682 38.63518838998913 C218.19191141640965 39.03638242581996 218.39250844927074 39.6883226705261 218.39250844927074 40.44056147649966 L218.39250844927074 48.06324794804652 L222.60504557141843 48.06324794804652 L222.60504557141843 39.788622136004896 C222.60504557141843 38.68533852999729 222.40444855350307 37.732502780836505 222.0534037684145 36.93011476895742 C221.65220973258374 36.12772669729574 221.15071722515933 35.52593568838642 220.44862762509132 35.074592356976225 C219.74653808480576 34.62324908534857 218.89400080723863 34.42265208237881 217.94116493851277 34.42265208237881 C217.18892613253917 34.42265208237881 216.4868365324711 34.573099849551774 215.83489637743878 34.87399535400643 C215.18295610284144 35.17489088835238 214.63131424005508 35.57608489429194 214.12982170273932 36.07757749139022 C214.07967244826045 36.12772674586908 214.02952319378164 36.17787600034794 214.02952319378164 36.228025258563186 L213.9292246848239 34.72354764661603 L209.96743359220386 34.72354764661603 L209.96743359220386 46.25787600487761 C209.91728151299833 47.01011352552596 210.11787546705705 47.56175646439856 210.4689263649134 47.86265122157112 "></path>
    </defs>
    <g style="mix-blend-mode:normal">
      <use xmlns:xlink="http://www.w3.org/1999/xlink" xlink:href="#s-Path_4-d1224" fill="#000000" fill-opacity="1.0"></use>
    </g>
  </g>
  <g>
    <defs>
      <path id="s-Polygon_1-d1224" d="M202.24443650946665 48.01309860015632 L206.45698606638888 48.01309860015632 L206.45698606638888 34.723546361289785 L202.24443650946665 34.723546361289785 Z "></path>
    </defs>
    <g style="mix-blend-mode:normal">
      <use xmlns:xlink="http://www.w3.org/1999/xlink" xlink:href="#s-Polygon_1-d1224" fill="#000000" fill-opacity="1.0"></use>
    </g>
  </g>
  <g>
    <defs>
      <path id="s-Path_5-d1224" d="M204.20026964846818 28.80593480357298 C202.8963890992735 28.80593480357298 201.89340402464217 29.859069084109933 201.89340402464217 31.162949633304734 C201.89340402464217 32.466830182499535 202.94653830517893 33.51996446303648 204.20026964846818 33.51996446303648 C205.50415019766302 33.51996446303648 206.50713527229436 32.466830182499535 206.50713527229436 31.162949633304734 C206.5572753912494 29.8590693232402 205.50413800201886 28.80593480357298 204.20026964846818 28.80593480357298 "></path>
    </defs>
    <g style="mix-blend-mode:normal">
      <use xmlns:xlink="http://www.w3.org/1999/xlink" xlink:href="#s-Path_5-d1224" fill="#000000" fill-opacity="1.0"></use>
    </g>
  </g>
  <g>
    <defs>
      <path id="s-Path_6-d1224" d="M198.48324247959937 36.93011429069579 C198.13219770945665 36.12772621903414 197.58055593634407 35.475785884654165 196.87846633627603 35.074591878714614 C196.17637679599056 34.67339784288379 195.27369019295273 34.422651604117206 194.2205557928506 34.422651604117206 C193.81936175701975 34.422651604117206 193.36801845550082 34.47280085859607 192.91667524365582 34.623248622032605 C192.46533197202817 34.72354713099033 192.06413790630603 34.92414415637857 191.61279469446092 35.17489042503643 C191.2116006586301 35.4256366936943 190.81040662279926 35.67638296235215 190.45936188254782 36.027427762386175 C190.2587648646324 36.228024780301595 190.058167846717 36.42862179821701 189.8575708138559 36.6793680369836 C189.70712304668297 36.32832326684083 189.50652604371317 36.027427762386175 189.25577974516403 35.77668149372833 C188.85458570933318 35.325338222100676 188.40324240781425 34.97429342206665 187.851600664593 34.77369641909687 C187.29995892137177 34.57309941612712 186.6981678526799 34.47280088475094 186.0462275780825 34.47280088475094 C185.59488430645484 34.47280088475094 185.1936902407327 34.5229501392298 184.74234702888762 34.67339790266635 C184.29100375726003 34.773696411624066 183.8898096915379 34.97429343701231 183.48861568559835 35.22503970567016 C183.08742167965883 35.475785974328026 182.73637687962471 35.726532242985876 182.4354814050614 36.0775770430199 L182.3853321505825 36.12772629749876 L182.33518289610367 34.773696422833304 L178.32324259757786 34.773696422833304 L178.32324259757786 45.75638279874331 L178.32324259757786 46.30802460174711 C178.32324259757786 47.110412673408774 178.52383961549336 47.662054476412585 178.8748844005817 47.96294995097596 C179.2259291707244 48.26384548532189 179.8277202095251 48.41429322260358 180.63010828118672 48.41429322260358 C181.03130231701755 48.41429322260358 181.3823470871603 48.36414396812473 181.73339188719436 48.31399471364589 C182.0844366573371 48.26384545916703 182.33518295588627 48.21369620468816 182.48563069316793 48.16354694647292 L182.53577994764686 40.23996476123245 C182.53577994764686 39.9390692268865 182.5859292021256 39.63817369254056 182.68622771481978 39.3874274238827 C182.78652622751386 39.136681155224835 182.9369739834776 38.936084152255056 183.13757098644743 38.7354871492853 C183.3381680043628 38.53489013136988 183.53876502227826 38.38444237914254 183.83966052673284 38.28414387765766 C184.09040679539078 38.18384536869995 184.3913023297367 38.13369611048468 184.69219786408266 38.13369611048468 C185.24383966708643 38.13369611048468 185.69518293871405 38.33429312840011 185.99607841327747 38.68533791348849 C186.29697394762343 39.03638268363123 186.44742168490515 39.58802445674375 186.44742168490515 40.290114056811824 L186.44742168490515 48.113397830241226 L190.65995880705296 48.113397830241226 L190.65995880705296 40.089517233189746 C190.65995880705296 39.788621698843805 190.71010806153177 39.487726164497865 190.81040657422588 39.23697989583999 C190.91070508692007 38.98623362718214 191.06115284288379 38.78563662421236 191.26174984585356 38.5850396212426 C191.462346863769 38.38444260332718 191.6629438816844 38.233994851099844 191.96383938613903 38.13369634961497 C192.2145856547969 38.033397840657244 192.5154811891429 37.98324858244199 192.86652592939436 37.98324858244199 C193.46831699808624 37.98324858244199 193.91966020993127 38.1838456003574 194.22055580405984 38.5348903854458 C194.52145133840577 38.88593515558854 194.67189907568746 39.43757692870106 194.67189907568746 40.18981573467463 L194.67189907568746 47.96295006306826 L198.88443619783527 47.96295006306826 L198.88443619783527 39.88891911303321 C198.9847350169151 38.735486659815514 198.83429337745548 37.73250158518407 198.48324247959937 36.93011429069579 "></path>
    </defs>
    <g style="mix-blend-mode:normal">
      <use xmlns:xlink="http://www.w3.org/1999/xlink" xlink:href="#s-Path_6-d1224" fill="#000000" fill-opacity="1.0"></use>
    </g>
  </g>
  <g>
    <defs>
      <path id="s-Path_7-d1224" d="M163.37877251966736 47.86265122157112 C163.72981728981011 48.16354675591706 164.3316083286107 48.313994493198756 165.13399640027237 48.313994493198756 C165.53519043610325 48.313994493198756 165.886235206246 48.263845238719895 166.23728000628 48.213695984241035 C166.58832477642275 48.163546729762174 166.83907107497186 48.113397475283335 166.98951881225358 48.06324821706807 L167.03966806673245 40.13966603182758 C167.03966806673245 39.838770497481626 167.08981732121129 39.537874963135685 167.1901158339054 39.287128694477815 C167.29041434659948 39.03638242581996 167.44086210256327 38.785636157162116 167.64145910553302 38.58503915419234 C167.8420561085028 38.38444215122256 168.04265314136387 38.23399438404958 168.34354864581854 38.133695882564695 C168.5942949144764 38.03339737360699 168.89519044882232 37.98324811539171 169.24623518907376 37.98324811539171 C169.89817546367118 37.98324811539171 170.39966800098696 38.18384513330714 170.75071280102094 38.63518838998913 C171.1017575711637 39.03638242581996 171.30235460402477 39.6883226705261 171.30235460402477 40.44056147649966 L171.30235460402477 48.06324794804652 L175.51489172617258 48.06324794804652 L175.51489172617258 39.788622136004896 C175.51489172617258 38.68533852999729 175.31429470825717 37.732502780836505 174.96324992316875 36.93011476895742 C174.56205588733798 36.12772669729574 174.06056337991353 35.52593568838642 173.3584737798454 35.074592356976225 C172.65638417977735 34.623249025566004 171.80384696199278 34.42265208237881 170.8510110932668 34.42265208237881 C170.0987722872933 34.42265208237881 169.39668268722522 34.573099849551774 168.74474253219293 34.87399535400643 C168.09280225759548 35.17489088835238 167.54116039480917 35.57608489429194 167.03966785749344 36.07757749139022 C166.9895186030146 36.12772674586908 166.93936934853573 36.17787600034794 166.93936934853573 36.228025258563186 L166.83907083957803 34.72354764661603 L162.8772797469578 34.72354764661603 L162.8772797469578 46.25787600487761 C162.82712766775256 47.01011352552596 163.02772927398016 47.56175646439856 163.37877251966736 47.86265122157112 "></path>
    </defs>
    <g style="mix-blend-mode:normal">
      <use xmlns:xlink="http://www.w3.org/1999/xlink" xlink:href="#s-Path_7-d1224" fill="#000000" fill-opacity="1.0"></use>
    </g>
  </g>
  <g>
    <defs>
      <path id="s-Polygon_2-d1224" d="M155.20444263098688 48.01309860015632 L159.36683222114115 48.01309860015632 L159.36683222114115 34.723546361289785 L155.20444263098688 34.723546361289785 Z "></path>
    </defs>
    <g style="mix-blend-mode:normal">
      <use xmlns:xlink="http://www.w3.org/1999/xlink" xlink:href="#s-Polygon_2-d1224" fill="#000000" fill-opacity="1.0"></use>
    </g>
  </g>
  <g>
    <defs>
      <path id="s-Path_8-d1224" d="M157.36086207187924 28.80593480357298 C156.05698152268445 28.80593480357298 155.05399644805303 29.859069084109933 155.05399644805303 31.162949633304734 C155.05399644805303 32.466830182499535 156.10713072859 33.51996446303648 157.36086207187924 33.51996446303648 C158.61459341516857 33.51996446303648 159.6677276957055 32.466830182499535 159.6677276957055 31.162949633304734 C159.7178754668293 29.8590693232402 158.6647380775988 28.80593480357298 157.36086207187924 28.80593480357298 "></path>
    </defs>
    <g style="mix-blend-mode:normal">
      <use xmlns:xlink="http://www.w3.org/1999/xlink" xlink:href="#s-Path_8-d1224" fill="#000000" fill-opacity="1.0"></use>
    </g>
  </g>
  <g>
    <defs>
      <path id="s-Polygon_3-d1224" d="M150.44026352648646 31.413696380223698 L146.27787393633247 31.413696380223698 L146.27787393633247 48.013098600157086 L150.44026352648646 48.013098600157086 L150.44026352648646 38.43459190264376 L152.94772621306498 38.43459190264376 L152.94772621306498 34.72354636129055 L150.44026352648646 34.72354636129055 Z "></path>
    </defs>
    <g style="mix-blend-mode:normal">
      <use xmlns:xlink="http://www.w3.org/1999/xlink" xlink:href="#s-Polygon_3-d1224" fill="#000000" fill-opacity="1.0"></use>
    </g>
  </g>
  <g>
    <defs>
      <path id="s-Path_9-d1224" d="M143.21877405000959 41.593994505124456 C142.86772927986692 41.2429497349817 142.41638597834796 40.89190496483896 141.8647441753442 40.6411586961811 C141.31310237234035 40.39041242752325 140.66116203796037 40.13966615886538 139.8587740260813 39.88891989020753 C139.2569829573894 39.73847212303457 138.75549042007373 39.58802435586158 138.40444562003972 39.4375766185799 C138.05340084989692 39.28712885140692 137.8026545513478 39.18683034992204 137.65220681406615 39.136681084233956 C137.50175904689317 39.03638257527624 137.40146054540833 38.936084066318536 137.30116204392337 38.785636314091214 C137.20086353496566 38.68533780513349 137.20086353496566 38.53489004543336 137.20086353496566 38.38444227826039 C137.20086353496566 38.23399451108741 137.2510127894445 38.13369600960252 137.30116204392337 38.03339750811762 C137.3513112984022 37.933098999159924 137.45160981109635 37.832800490202224 137.55190831258128 37.73250197377169 C137.65220682153898 37.63220346481398 137.8026545812391 37.58205420659871 137.95310234841207 37.53190495585627 C138.1536993663275 37.481755701377416 138.35429638424293 37.481755701377416 138.554893417104 37.481755701377416 C138.85578895144988 37.481755701377416 139.20683369170138 37.53190495585627 139.55787849173538 37.682352719292844 C139.9089232618781 37.832800486465814 140.31011729770893 37.98324825363878 140.66116209774296 38.23399452229665 C141.01220686788568 38.43459154021206 141.3632516380285 38.68533779392427 141.6139979066863 38.9862333282702 L141.714296415644 39.086531837227916 L143.9710128335647 36.57906915064933 L143.87071432460704 36.47877064169163 C143.41937105297933 36.077576605860806 142.9178785156637 35.67638257002998 142.31608750675434 35.42563636115469 C141.76444570375054 35.12474082680874 141.11250536937058 34.87399455815088 140.4605650947732 34.72354682086919 C139.80862482017582 34.573099053696225 139.10653522010776 34.47280055221133 138.40444573960485 34.47280055221133 C137.5017591963496 34.47280055221133 136.59907265309434 34.62324831938431 135.79668464121525 34.97429308952705 C134.99429656955363 35.32533785966978 134.3423562351736 35.826830426876796 133.84086369785794 36.42862149556868 C133.3393711605422 37.03041256426058 133.08862489188436 37.782651370234156 133.08862489188436 38.635188707583886 C133.08862489188436 39.186830510587676 133.1889234008421 39.68832298812083 133.3393711605422 40.089517113625526 C133.53996817845763 40.54086038525314 133.79071443216986 40.94205445097527 134.0916099665158 41.24294992553864 C134.44265473665848 41.593994695681396 134.94414730386555 41.94503946582413 135.4957890470867 42.24593500017008 C136.04743079030794 42.54683053451603 136.749520390376 42.74742753748581 137.5017591963496 42.948024540455556 C138.05340099935336 43.09847230762855 138.4545950052929 43.19877080911342 138.80563974554437 43.3492185762864 C139.15668451568712 43.449517085244096 139.35728154854826 43.54981559420182 139.50772928582987 43.65011411063234 C139.75847555448772 43.80056187780532 139.8587740559726 44.00115888077508 139.8587740559726 44.30205438522975 C139.8587740559726 44.45250215240273 139.80862480149375 44.55280065388761 139.75847554701485 44.6530991553725 C139.70832629253607 44.7533976643302 139.60802777984193 44.8536961732879 139.50772927835703 44.953994689718435 C139.40743076939933 45.054293198676135 139.25698300969918 45.10444245689141 139.1065352425262 45.154591707633855 C138.95608747535326 45.20474096211271 138.75549047238349 45.20474096211271 138.55489343952243 45.20474096211271 C138.00325163651866 45.20474096211271 137.40146062760934 45.10444245315498 136.79966955891743 44.853696191969945 C136.19787849022555 44.602949930784916 135.59608742153364 44.25190512327808 135.1447442096886 43.75041258596236 L135.0444457007309 43.65011407700464 L132.48683380824684 45.856681289019846 L132.58713231720458 45.95697979797757 C133.1889233858964 46.65906933826305 133.99131139777555 47.26086034717236 134.99429659197205 47.662054472677056 C135.99728166660344 48.06324850850788 137.10056515304595 48.263845541368944 138.35429649633522 48.263845541368944 C139.40743077687213 48.263845541368944 140.36026664559805 48.063248523453524 141.2128038633827 47.71220373836514 C142.0151919350443 47.311009702534314 142.7172814753298 46.80951719510987 143.16862480673996 46.15757692051246 C143.67011734405565 45.50563664591506 143.87071434702548 44.70324851447084 143.87071434702548 43.850711296686235 C143.87071434702548 43.3993680250586 143.82056509254662 42.99817395933649 143.67011732911004 42.59697995339694 C143.72026658732534 42.24593442102645 143.5196649810977 41.89488926229699 143.21877405000959 41.593994505124456 "></path>
    </defs>
    <g style="mix-blend-mode:normal">
      <use xmlns:xlink="http://www.w3.org/1999/xlink" xlink:href="#s-Path_9-d1224" fill="#000000" fill-opacity="1.0"></use>
    </g>
  </g>
  <g>
    <defs>
      <path id="s-Path_10-d1224" d="M130.23011274223148 34.87399373987787 C129.87906797208876 34.57309820553193 129.2772769332881 34.42265046825024 128.47488886162645 34.42265046825024 C128.0736948257956 34.42265046825024 127.72265005565288 34.472799722729086 127.37160525561885 34.522948977207946 C127.02056048547611 34.57309823168679 126.769814186927 34.62324748616564 126.61936644964527 34.673396744380916 L126.5692171951664 42.596978929621336 C126.5692171951664 42.897874463967284 126.51906794068756 43.19876999831322 126.41876942799345 43.449516266971074 C126.31847091903575 43.70026253562894 126.16802315933559 43.95100880428679 125.96742615636583 44.15160580725656 C125.76682915339606 44.35220281022633 125.56623212053498 44.50265057739931 125.26533661608035 44.60294907888421 C125.01459034742247 44.703247587841915 124.71369481307656 44.75339684605717 124.36265007282508 44.75339684605717 C123.71070979822767 44.75339684605717 123.20921726091197 44.55279982814176 122.85817246087792 44.10145657145977 C122.50712769073515 43.70026253562894 122.30653065787413 43.04832229092282 122.30653065787413 42.29608348494924 L122.30653065787413 34.723546361291596 L118.09399486962491 34.723546361291596 L118.09399486962491 42.897874336929306 C118.09399486962491 44.00115794293693 118.29459188754032 44.95399369209771 118.64563667262871 45.75638170397679 C119.04683070845952 46.558769775638446 119.54832321588397 47.16056078454776 120.25041281595203 47.61190411595796 C120.9525023562375 48.0632473875856 121.8050396338047 48.26384439055537 122.75787550253061 48.26384439055537 C123.51011430850419 48.26384439055537 124.21220390857223 48.11339662338239 124.86414406360448 47.812501118927734 C125.51608433820189 47.51160558458179 126.06772620098828 47.11041157864224 126.569218738304 46.608918981543965 C126.61936799278288 46.55876972706511 126.66951724726171 46.508620472586266 126.66951724726171 46.45847121437099 L126.76981575621943 47.96294882631814 L130.73160684883962 47.96294882631814 L130.73160684883962 36.42862046805668 C130.78175759414628 35.67638294740834 130.5811598140031 35.124740008535724 130.23011274223148 34.87399373987787 "></path>
    </defs>
    <g style="mix-blend-mode:normal">
      <use xmlns:xlink="http://www.w3.org/1999/xlink" xlink:href="#s-Path_10-d1224" fill="#000000" fill-opacity="1.0"></use>
    </g>
  </g>
  <g>
    <defs>
      <path id="s-Path_11-d1224" d="M110.97280237017407 29.909218768276645 L110.97280237017407 42.296084822583225 C110.97280237017407 42.69727885841406 110.87250386121637 43.048323628556794 110.7220561015162 43.349219103120156 C110.57160834181607 43.65011457768353 110.37101133137347 43.90086090612396 110.07011582691884 44.05130864340565 C109.76922029257287 44.20175641057861 109.46832475822696 44.3020549120635 109.1172800179755 44.3020549120635 C108.81638448362955 44.3020549120635 108.56563821497171 44.25190565758465 108.26474268062574 44.151607144890534 C108.01399641196791 44.05130863593282 107.71310087762195 43.8507116105446 107.46235460896413 43.599965341886744 C107.21160834030627 43.34921907322888 106.91071280596032 42.99817427319485 106.6098172716144 42.54683106134979 L106.5095187626567 42.446532552392085 L103.95190687017265 45.104443095817466 L104.00205612465149 45.20474160477518 C104.25280239330935 45.706234142090885 104.55369792765529 46.15757741371853 104.95489193359484 46.508622153969974 C105.30593670373757 46.90981618980079 105.75728000525649 47.26086095994356 106.2086232768841 47.511607228601406 C106.65996654851172 47.76235349725927 107.2116083515155 48.013099765917126 107.76325009473672 48.1635475031988 C108.31489183795793 48.313995240480494 108.91667990631213 48.36414375888646 109.56862173525631 48.36414375888646 C110.37100980691795 48.36414375888646 111.12324855310895 48.21369599171351 111.82533815317699 47.96294972305565 C112.52742775324502 47.71220345439779 113.12921870237176 47.31100944845825 113.63071123968747 46.80951691114253 C114.13220377700314 46.30802437382682 114.53339778294271 45.70623330513493 114.83429337707119 45.05429303053754 C115.13518891141715 44.352203490252045 115.28563664869883 43.599964624495904 115.28563664869883 42.7474274067113 L115.23548739421994 29.90921826012481 L110.97280237017407 29.909218768276645 Z "></path>
    </defs>
    <g style="mix-blend-mode:normal">
      <use xmlns:xlink="http://www.w3.org/1999/xlink" xlink:href="#s-Path_11-d1224" fill="#000000" fill-opacity="1.0"></use>
    </g>
  </g>
  <g>
    <defs>
      <path id="s-Path_12-d1224" d="M82.83906987893837 36.27817437479645 C82.83906987893837 39.8889205478175 79.83011465504404 42.797577359900764 76.16921903698716 42.797577359900764 C72.50832341893027 42.797577359900764 69.44921875000014 39.88891911303586 69.44921875000014 36.27817437479645 C69.44921875000014 32.66742963655706 72.45817397389447 29.758771389692143 76.11906959195136 29.758771389692143 C79.77996521000824 29.758771389692143 82.83906987893837 32.66742772351485 82.83906987893837 36.27817437479645 "></path>
    </defs>
    <g style="mix-blend-mode:normal">
      <use xmlns:xlink="http://www.w3.org/1999/xlink" xlink:href="#s-Path_12-d1224" fill="#FF6575" fill-opacity="1.0"></use>
    </g>
  </g>
  <g>
    <defs>
      <path id="s-Path_13-d1224" d="M82.83906987893837 44.35220346036244 C82.83906987893837 47.96294963338351 79.83011465504404 50.871606445466774 76.16921903698716 50.871606445466774 C72.50832341893027 50.871606445466774 69.44921875000014 47.962950111644055 69.44921875000014 44.35220346036244 C69.44921875000014 40.74145680908084 72.45817397389447 37.83280047525812 76.11906959195136 37.83280047525812 C79.77996521000824 37.83280047525812 82.83906987893837 40.74145680908084 82.83906987893837 44.35220346036244 "></path>
    </defs>
    <g style="mix-blend-mode:normal">
      <use xmlns:xlink="http://www.w3.org/1999/xlink" xlink:href="#s-Path_13-d1224" fill="#0099FF" fill-opacity="1.0"></use>
    </g>
  </g>
  <g>
    <defs>
      <path id="s-Path_14-d1224" d="M76.11906959195115 37.78265198674127 C73.96265158584144 37.78265198674127 72.0569798483896 38.78563706137272 70.8533979501361 40.290114673319835 C72.05698008751988 41.794592285266965 73.96265158584144 42.79757735989837 76.11906959195115 42.79757735989837 C78.27548759806083 42.79757735989837 80.18115933551267 41.794592285266965 81.38474123376618 40.290114673319835 C80.18115885725213 38.78563706137272 78.27548759806083 37.78265198674127 76.11906959195115 37.78265198674127 "></path>
    </defs>
    <g style="mix-blend-mode:normal">
      <use xmlns:xlink="http://www.w3.org/1999/xlink" xlink:href="#s-Path_14-d1224" fill="#0066B8" fill-opacity="1.0"></use>
    </g>
  </g>
</svg>
